<svg xmlns="http://www.w3.org/2000/svg" viewBox="0 0 760 330" role="img">
<style>text{font-family:system-ui,sans-serif;fill:#24282b}.muted{fill:#6b767b;font-size:13px}.label{font-size:14px;font-weight:650}.grid{stroke:#cbd1d4;stroke-width:1}.axis{stroke:#24282b;stroke-width:1.5}</style>
<rect width="100%" height="100%" fill="#f1f3f4" rx="8"/><text x="74" y="24" class="label">More certainty requires more data</text><line x1="74" y1="272.0" x2="726" y2="272.0" class="grid"/><text x="62" y="277.0" text-anchor="end" class="muted">0</text><line x1="74" y1="219.3" x2="726" y2="219.3" class="grid"/><text x="62" y="224.3" text-anchor="end" class="muted">50</text><line x1="74" y1="166.5" x2="726" y2="166.5" class="grid"/><text x="62" y="171.5" text-anchor="end" class="muted">100</text><line x1="74" y1="113.8" x2="726" y2="113.8" class="grid"/><text x="62" y="118.8" text-anchor="end" class="muted">150</text><line x1="74" y1="61.1" x2="726" y2="61.1" class="grid"/><text x="62" y="66.1" text-anchor="end" class="muted">200</text><rect x="132" y="165.5" width="92" height="106.5" rx="4" fill="#63747a"/><text x="178.0" y="155.5" text-anchor="middle" class="label">101</text><text x="178.0" y="298" text-anchor="middle" class="muted">70% power</text><rect x="280" y="137.0" width="92" height="135.0" rx="4" fill="#087f86"/><text x="326.0" y="127.0" text-anchor="middle" class="label">128</text><text x="326.0" y="298" text-anchor="middle" class="muted">80% power</text><rect x="428" y="90.6" width="92" height="181.4" rx="4" fill="#c6a34b"/><text x="474.0" y="80.6" text-anchor="middle" class="label">172</text><text x="474.0" y="298" text-anchor="middle" class="muted">90% power</text><rect x="576" y="48.4" width="92" height="223.6" rx="4" fill="#63747a"/><text x="622.0" y="38.4" text-anchor="middle" class="label">212</text><text x="622.0" y="298" text-anchor="middle" class="muted">95% power</text><line x1="74" y1="40" x2="74" y2="272" class="axis"/><line x1="74" y1="272" x2="726" y2="272" class="axis"/><text x="400.0" y="318" text-anchor="middle" class="muted">required observations per group for d = 0.35</text></svg>